# xmcd
#
# Track frame offsets: 
#        150
#        2944
#        18713
#        43573
#        72819
#        97421
#        136110
#        177836
#        194051
#        213514
#        221288
#        240951
#        267879
#        283127
#        305063
#        312683
#
# Disc length: 4742 seconds
#
# Revision: 0
# Processed by: cddbd v1.5.2PL0 Copyright (c) Steve Scherf et al.
# Submitted via: ExactAudioCopy v0.99pb3
#
DISCID=f6128410
DTITLE=Caroline Myss - The Language of Archetypes - The Creative Famil
DTITLE=y  D08
DYEAR=2006
DGENRE=
TTITLE0=Introduction
TTITLE1=Recognizing your own archetypes requires contemplation
TTITLE2=Many of us are uncomfortable with our creativity
TTITLE3=The Artist
TTITLE4=The Starving Artist
TTITLE5=Taking createve risks
TTITLE6=The Artist can take many forms
TTITLE7=The Scribe
TTITLE8=The Pioneer and the Explorer
TTITLE9=The Statesman
TTITLE10=The Strategist
TTITLE11=The Networker and the Gossip
TTITLE12=The Entrepreneur
TTITLE13=The Philanthropist
TTITLE14=The Olympian or Athlete
TTITLE15=The Visonary Prophet
EXTD=
EXTT0=
EXTT1=
EXTT2=
EXTT3=
EXTT4=
EXTT5=
EXTT6=
EXTT7=
EXTT8=
EXTT9=
EXTT10=
EXTT11=
EXTT12=
EXTT13=
EXTT14=
EXTT15=
PLAYORDER=
